HIERARCHY
ROOT joint_Root
{
	OFFSET 0.0 0.0 0.0
	CHANNELS 6 Xposition Yposition Zposition Zrotation Xrotation Yrotation 
	JOINT Hips
	{
		OFFSET -0.726466 93.3139 -2.00062
		CHANNELS 6 Xposition Yposition Zposition Zrotation Xrotation Yrotation 
		JOINT Spine
		{
			OFFSET 15.7357 0.0 0.0
			CHANNELS 6 Xposition Yposition Zposition Zrotation Xrotation Yrotation 
			JOINT Chest
			{
				OFFSET 8.98455 -0.406207 0.0
				CHANNELS 6 Xposition Yposition Zposition Zrotation Xrotation Yrotation 
				JOINT Neck
				{
					OFFSET 16.3773 0.0 0.0
					CHANNELS 6 Xposition Yposition Zposition Zrotation Xrotation Yrotation 
					JOINT Head
					{
						OFFSET 6.45672 0.0 0.0
						CHANNELS 6 Xposition Yposition Zposition Zrotation Xrotation Yrotation 
						End Site
						{
							OFFSET 0.0 0.0 0.0
						}
					}
				}
				JOINT Shoulder_L
				{
					OFFSET 12.9942 -0.242716 4.98039
					CHANNELS 6 Xposition Yposition Zposition Zrotation Xrotation Yrotation 
					JOINT UpperArm_L
					{
						OFFSET 5.34809 0.0 0.0
						CHANNELS 6 Xposition Yposition Zposition Zrotation Xrotation Yrotation 
						JOINT LowerArm_L
						{
							OFFSET 24.3286 1.87007e-05 0.0
							CHANNELS 6 Xposition Yposition Zposition Zrotation Xrotation Yrotation 
							JOINT Hand_L
							{
								OFFSET 22.2916 0.0 0.0
								CHANNELS 6 Xposition Yposition Zposition Zrotation Xrotation Yrotation 
								End Site
								{
									OFFSET 0.0 0.0 0.0
								}
							}
						}
					}
				}
				JOINT Shoulder_R
				{
					OFFSET 12.9945 -0.242716 -4.98039
					CHANNELS 6 Xposition Yposition Zposition Zrotation Xrotation Yrotation 
					JOINT UpperArm_R
					{
						OFFSET -5.34813 0.0 0.0
						CHANNELS 6 Xposition Yposition Zposition Zrotation Xrotation Yrotation 
						JOINT LowerArm_R
						{
							OFFSET -24.3289 0.000322201 0.0
							CHANNELS 6 Xposition Yposition Zposition Zrotation Xrotation Yrotation 
							JOINT Hand_R
							{
								OFFSET -22.2915 -0.000108084 0.0
								CHANNELS 6 Xposition Yposition Zposition Zrotation Xrotation Yrotation 
								End Site
								{
									OFFSET 0.0 0.0 0.0
								}
							}
						}
					}
				}
			}
		}
		JOINT UpperLeg_L
		{
			OFFSET -2.19248 -6.46944 0.0
			CHANNELS 6 Xposition Yposition Zposition Zrotation Xrotation Yrotation 
			JOINT LowerLeg_L
			{
				OFFSET 39.0811 0.0 -1.23785e-05
				CHANNELS 6 Xposition Yposition Zposition Zrotation Xrotation Yrotation 
				JOINT Foot_L
				{
					OFFSET 40.9854 0.0 -1.26872e-05
					CHANNELS 6 Xposition Yposition Zposition Zrotation Xrotation Yrotation 
					JOINT Toes_L
					{
						OFFSET 11.7543 0.0 0.0
						CHANNELS 6 Xposition Yposition Zposition Zrotation Xrotation Yrotation 
						End Site
						{
							OFFSET 0.0 0.0 0.0
						}
					}
				}
			}
		}
		JOINT UpperLeg_R
		{
			OFFSET -2.19251 6.46944 0.0
			CHANNELS 6 Xposition Yposition Zposition Zrotation Xrotation Yrotation 
			JOINT LowerLeg_R
			{
				OFFSET -39.0811 -0.00228153 -0.0401928
				CHANNELS 6 Xposition Yposition Zposition Zrotation Xrotation Yrotation 
				JOINT Foot_R
				{
					OFFSET -40.9854 0.0 0.0
					CHANNELS 6 Xposition Yposition Zposition Zrotation Xrotation Yrotation 
					JOINT Toes_R
					{
						OFFSET -11.7543 0.0 0.0
						CHANNELS 6 Xposition Yposition Zposition Zrotation Xrotation Yrotation 
						End Site
						{
							OFFSET 0.0 0.0 0.0
						}
					}
				}
			}
		}
	}
}
MOTION
Frames:	8
Frame Time:	0.0333333
0.000000 0.000000 0.000000 0.000000 0.000000 -0.000000 1.935290 85.603500 -404.334000 92.027400 -8.084160 -8.311570 15.735700 0.000005 -0.000001 108.378000 79.741700 -108.810000 8.984550 -0.406207 -0.000000 11.782200 6.399040 -1.526620 16.377300 -0.000001 -0.000001 3.154740 -0.640061 0.989323 6.456720 -0.000001 -0.000000 -0.611895 -4.124360 -2.297840 12.994200 -0.242716 4.980390 -87.543400 -5.513210 -65.936400 5.348090 -0.000007 -0.000001 -67.561700 26.616900 17.693500 24.328600 0.000019 0.000005 -0.453268 -0.599786 -37.067400 22.291600 -0.000001 0.000005 -8.063620 5.564160 -9.395100 12.994500 -0.242716 -4.980390 90.263400 -0.803627 -71.857500 -5.348130 -0.000001 -0.000004 -44.315700 11.997400 -44.103600 -24.328900 0.000322 -0.000009 -14.999000 -6.215630 -67.994000 -22.291500 -0.000108 -0.000004 -1.128380 5.553850 -8.888600 -2.192480 -6.469440 -0.000000 172.419000 -7.851750 -51.959400 39.081100 -0.000007 -0.000012 -0.283987 -0.059978 101.927000 40.985400 -0.000006 -0.000013 8.614990 -6.085340 -55.483900 11.754300 -0.000000 0.000003 -0.006813 -0.078059 -19.754400 -2.192510 6.469440 -0.000001 177.173000 11.166900 171.464000 -39.081100 -0.002282 -0.040193 0.033446 -0.030738 44.475900 -40.985400 0.000008 0.000006 4.834610 1.588070 -78.615100 -11.754300 -0.000006 -0.000006 -0.068823 -0.359438 -31.451700
0.000000 0.000000 0.000000 0.000000 0.000000 -0.000000 2.257740 89.349200 -396.998000 93.060400 -9.146710 -9.780990 15.735700 0.000005 -0.000001 111.340000 80.185100 -112.726000 8.984550 -0.406207 -0.000000 10.664900 7.058490 -3.432980 16.377300 -0.000001 -0.000001 3.683320 -0.505700 1.154570 6.456720 -0.000001 -0.000000 -0.307701 -4.978130 -1.433990 12.994200 -0.242716 4.980390 -86.971100 -6.682340 -65.548000 5.348090 -0.000007 -0.000001 -68.488500 24.784600 21.073100 24.328600 0.000019 0.000005 0.237790 0.319022 -36.693600 22.291600 -0.000001 0.000005 -8.614880 5.558940 -9.136030 12.994500 -0.242716 -4.980390 90.616700 -1.898680 -72.001600 -5.348130 -0.000001 -0.000004 -45.575900 12.222700 -44.818200 -24.328900 0.000322 -0.000009 -13.948300 -5.172730 -70.048300 -22.291500 -0.000108 -0.000004 -1.558820 5.548560 -8.638270 -2.192480 -6.469440 -0.000000 170.575000 -7.376070 -52.398500 39.081100 -0.000007 -0.000012 -0.124792 0.011929 84.543300 40.985400 -0.000006 -0.000013 8.681140 -8.819330 -59.513600 11.754300 -0.000000 0.000003 -0.006218 -0.072810 -19.540200 -2.192510 6.469440 -0.000001 173.842000 12.638000 176.600000 -39.081100 -0.002282 -0.040193 0.036106 -0.046280 35.339300 -40.985400 0.000008 0.000006 4.328330 5.798100 -61.021100 -11.754300 -0.000006 -0.000006 -0.203480 -0.650852 -44.494700
0.000000 0.000000 0.000000 0.000000 0.000000 -0.000000 2.398780 92.730800 -389.791000 92.076200 -9.854610 -10.985400 15.735700 0.000005 -0.000001 114.254000 80.369200 -115.809000 8.984550 -0.406207 -0.000000 9.973110 7.833750 -3.794740 16.377300 -0.000001 -0.000001 4.199020 -0.231936 1.204300 6.456720 -0.000001 -0.000000 -0.744685 -5.279780 -1.003380 12.994200 -0.242716 4.980390 -86.579500 -7.571180 -65.599000 5.348090 -0.000007 -0.000001 -70.430500 24.913400 23.659500 24.328600 0.000019 0.000005 0.049187 0.065623 -36.895800 22.291600 -0.000001 0.000005 -8.372310 5.564180 -9.394300 12.994500 -0.242716 -4.980390 90.785100 -2.494410 -72.521200 -5.348130 -0.000001 -0.000004 -46.289600 12.990100 -44.861000 -24.328900 0.000322 -0.000009 -12.685600 -4.519970 -70.702600 -22.291500 -0.000108 -0.000004 -1.637120 5.547610 -8.593850 -2.192480 -6.469440 -0.000000 171.428000 -7.459340 -49.222800 39.081100 -0.000007 -0.000012 -0.014384 0.007173 63.512300 40.985400 -0.000006 -0.000013 8.868220 -6.746790 -62.743700 11.754300 -0.000000 0.000003 -0.006578 -0.076009 -19.670700 -2.192510 6.469440 -0.000001 172.028000 15.521100 -179.868000 -39.081100 -0.002282 -0.040193 0.071117 -0.126910 28.116500 -40.985400 0.000008 0.000006 0.521971 11.757300 -41.166400 -11.754300 -0.000006 -0.000006 -0.207728 -0.657788 -44.824500
0.000000 0.000000 0.000000 0.000000 0.000000 -0.000000 2.254510 94.579400 -382.186000 89.626600 -9.860450 -10.747600 15.735700 0.000005 -0.000001 116.212000 80.089900 -117.254000 8.984550 -0.406207 -0.000000 10.182100 8.676520 -2.858970 16.377300 -0.000001 -0.000001 4.611180 -0.144628 1.174750 6.456720 -0.000001 -0.000000 -1.257790 -5.287280 -0.731264 12.994200 -0.242716 4.980390 -86.256100 -8.385830 -65.834500 5.348090 -0.000007 -0.000001 -72.470300 25.240400 25.385200 24.328600 0.000019 0.000005 -1.197730 -1.526660 -38.110900 22.291600 -0.000001 0.000005 -8.284280 5.566580 -9.513590 12.994500 -0.242716 -4.980390 90.871900 -2.880750 -73.152100 -5.348130 -0.000001 -0.000004 -46.942500 14.111500 -44.023100 -24.328900 0.000322 -0.000009 -12.276600 -4.431770 -70.447800 -22.291500 -0.000108 -0.000004 -1.041920 5.551710 -8.786360 -2.192480 -6.469440 -0.000000 174.254000 -8.020460 -42.623700 39.081100 -0.000007 -0.000012 0.013023 -0.014628 41.671600 40.985400 -0.000006 -0.000013 5.514460 -2.272640 -65.449000 11.754300 -0.000000 0.000003 -0.006621 -0.076386 -19.686100 -2.192510 6.469440 -0.000001 171.456000 15.869200 -175.819000 -39.081100 -0.002282 -0.040193 0.112057 -0.239927 24.381900 -40.985400 0.000008 0.000006 -7.124380 12.098800 -27.324500 -11.754300 -0.000006 -0.000006 -0.029156 -0.213570 -25.320500
0.000000 0.000000 0.000000 0.000000 0.000000 -0.000000 1.951960 94.743500 -374.093000 87.021200 -10.282700 -10.218400 15.735700 0.000005 -0.000001 118.491000 79.824700 -118.902000 8.984550 -0.406207 -0.000000 10.261600 9.635570 -1.690000 16.377300 -0.000001 -0.000001 4.499640 0.033364 1.156930 6.456720 -0.000001 -0.000000 -0.890254 -5.302470 -0.711948 12.994200 -0.242716 4.980390 -86.000700 -8.865870 -65.599500 5.348090 -0.000007 -0.000001 -73.754900 24.700500 26.276600 24.328600 0.000019 0.000005 -2.438320 -2.913680 -39.948600 22.291600 -0.000001 0.000005 -7.435940 5.563470 -9.359270 12.994500 -0.242716 -4.980390 91.028300 -3.477540 -73.515200 -5.348130 -0.000001 -0.000004 -48.272100 15.979600 -42.522500 -24.328900 0.000322 -0.000009 -11.997600 -4.647580 -69.126600 -22.291500 -0.000108 -0.000004 -0.299922 5.550190 -8.715070 -2.192480 -6.469440 -0.000000 176.429000 -10.127000 -35.864600 39.081100 -0.000007 -0.000012 0.002997 -0.007258 22.435700 40.985400 -0.000006 -0.000013 2.133910 -0.311423 -68.037800 11.754300 -0.000000 0.000003 -0.007132 -0.080799 -19.866200 -2.192510 6.469440 -0.000001 171.819000 14.185900 -173.240000 -39.081100 -0.002282 -0.040193 0.129678 -0.241367 27.635000 -40.985400 0.000008 0.000006 -6.969940 8.349390 -27.514400 -11.754300 -0.000006 -0.000006 -0.021795 -0.177034 -23.809600
0.000000 0.000000 0.000000 0.000000 0.000000 -0.000000 1.778950 93.789300 -365.843000 85.146100 -10.888800 -10.174000 15.735700 0.000005 -0.000001 120.055000 79.783700 -120.093000 8.984550 -0.406207 -0.000000 10.039100 10.168200 -0.972241 16.377300 -0.000001 -0.000001 4.328240 0.299693 1.134670 6.456720 -0.000001 -0.000000 -0.696546 -5.212770 -0.460964 12.994200 -0.242716 4.980390 -85.902400 -8.919370 -65.200600 5.348090 -0.000007 -0.000001 -73.930100 21.401500 25.471900 24.328600 0.000019 0.000005 -3.181420 -3.668880 -40.978200 22.291600 -0.000001 0.000005 -6.427470 5.562290 -9.300200 12.994500 -0.242716 -4.980390 91.065700 -3.622300 -73.593900 -5.348130 -0.000001 -0.000004 -49.823100 18.241700 -40.894100 -24.328900 0.000322 -0.000009 -11.346000 -5.058250 -66.273500 -22.291500 -0.000108 -0.000004 -0.219106 5.558610 -9.118950 -2.192480 -6.469440 -0.000000 177.481000 -12.344000 -32.594600 39.081100 -0.000007 -0.000012 -0.001602 0.007247 12.462800 40.985400 -0.000006 -0.000013 -1.515230 -3.047680 -68.730000 11.754300 -0.000000 0.000003 -0.007563 -0.084434 -20.014600 -2.192510 6.469440 -0.000001 172.025000 11.177100 -172.209000 -39.081100 -0.002282 -0.040193 0.131898 -0.191018 33.950900 -40.985400 0.000008 0.000006 -6.175180 4.196550 -32.932000 -11.754300 -0.000006 -0.000006 -0.021563 -0.175798 -23.758600
0.000000 0.000000 0.000000 0.000000 0.000000 -0.000000 1.678560 91.876600 -357.525000 84.126000 -10.823500 -9.797990 15.735700 0.000005 -0.000001 119.294000 79.764500 -119.157000 8.984550 -0.406207 -0.000000 10.188200 9.954370 -0.614492 16.377300 -0.000001 -0.000001 4.196690 0.448329 1.331540 6.456720 -0.000001 -0.000000 -1.044920 -4.929420 -0.438202 12.994200 -0.242716 4.980390 -86.164300 -8.345390 -65.206100 5.348090 -0.000007 -0.000001 -73.495400 17.804800 22.925600 24.328600 0.000019 0.000005 -3.693080 -4.233830 -41.162800 22.291600 -0.000001 0.000005 -5.305280 5.565570 -9.462740 12.994500 -0.242716 -4.980390 90.960600 -3.266420 -73.601600 -5.348130 -0.000001 -0.000004 -51.909300 20.428400 -38.259700 -24.328900 0.000322 -0.000009 -9.754480 -5.033820 -62.952800 -22.291500 -0.000108 -0.000004 -0.148596 5.562150 -9.291720 -2.192480 -6.469440 -0.000000 177.023000 -14.490200 -32.473600 39.081100 -0.000007 -0.000012 0.004752 -0.018759 14.217300 40.985400 -0.000006 -0.000013 0.162147 -8.859390 -70.120100 11.754300 -0.000000 0.000003 -0.007062 -0.080202 -19.841800 -2.192510 6.469440 -0.000001 173.234000 6.384600 -172.005000 -39.081100 -0.002282 -0.040193 0.149176 -0.162572 41.907000 -40.985400 0.000008 0.000006 -4.318670 -0.987976 -35.837000 -11.754300 -0.000006 -0.000006 -0.022446 -0.180477 -23.951600
0.000000 0.000000 0.000000 0.000000 0.000000 -0.000000 1.774040 89.373500 -349.601000 86.108600 -9.797860 -9.869950 15.735700 0.000005 -0.000001 114.852000 80.173800 -115.505000 8.984550 -0.406207 -0.000000 10.190400 8.192400 -2.038890 16.377300 -0.000001 -0.000001 4.200100 0.532285 1.913640 6.456720 -0.000001 -0.000000 -2.339330 -4.380560 -0.351102 12.994200 -0.242716 4.980390 -86.945200 -6.795580 -65.724500 5.348090 -0.000007 -0.000001 -71.944300 15.596200 19.067500 24.328600 0.000019 0.000005 -4.145480 -4.587940 -42.177500 22.291600 -0.000001 0.000005 -4.322720 5.566600 -9.516220 12.994500 -0.242716 -4.980390 90.599500 -2.040920 -73.626700 -5.348130 -0.000001 -0.000004 -53.486200 22.907700 -34.491000 -24.328900 0.000322 -0.000009 -8.765670 -5.184230 -59.624100 -22.291500 -0.000108 -0.000004 0.192832 5.568690 -9.621400 -2.192480 -6.469440 -0.000000 174.305000 -12.948500 -39.891700 39.081100 -0.000007 -0.000012 0.337641 -0.567993 30.729800 40.985400 -0.000006 -0.000013 7.305760 -10.809500 -60.657400 11.754300 -0.000000 0.000003 -0.013108 -0.125564 -21.697100 -2.192510 6.469440 -0.000001 171.480000 5.388200 -175.092000 -39.081100 -0.002282 -0.040193 0.238220 -0.173391 53.577500 -40.985400 0.000008 0.000006 0.571997 -2.940340 -35.910300 -11.754300 -0.000006 -0.000006 -0.022275 -0.179577 -23.914500
